<?xml version="1.0" encoding="UTF-8" standalone="no"?>
<!-- Created with Inkscape (http://www.inkscape.org/) -->

<svg
   xmlns:dc="http://purl.org/dc/elements/1.1/"
   xmlns:cc="http://creativecommons.org/ns#"
   xmlns:rdf="http://www.w3.org/1999/02/22-rdf-syntax-ns#"
   xmlns:svg="http://www.w3.org/2000/svg"
   xmlns="http://www.w3.org/2000/svg"
   xmlns:sodipodi="http://sodipodi.sourceforge.net/DTD/sodipodi-0.dtd"
   xmlns:inkscape="http://www.inkscape.org/namespaces/inkscape"
   width="100"
   height="36"
   viewBox="0 0 100 36.000001"
   id="svg4746"
   version="1.1"
   inkscape:version="0.91 r13725"
   sodipodi:docname="logoEntreVoisin2.svg">
  <defs
     id="defs4748" />
  <sodipodi:namedview
     id="base"
     pagecolor="#ffffff"
     bordercolor="#666666"
     borderopacity="1.0"
     inkscape:pageopacity="0.0"
     inkscape:pageshadow="2"
     inkscape:zoom="4.2173913"
     inkscape:cx="81.461713"
     inkscape:cy="31.428571"
     inkscape:document-units="px"
     inkscape:current-layer="layer1"
     showgrid="false"
     units="px"
     inkscape:window-width="1920"
     inkscape:window-height="1018"
     inkscape:window-x="-8"
     inkscape:window-y="-8"
     inkscape:window-maximized="1" />
  <metadata
     id="metadata4751">
    <rdf:RDF>
      <cc:Work
         rdf:about="">
        <dc:format>image/svg+xml</dc:format>
        <dc:type
           rdf:resource="http://purl.org/dc/dcmitype/StillImage" />
        <dc:title></dc:title>
      </cc:Work>
    </rdf:RDF>
  </metadata>
  <g
     inkscape:label="Calque 1"
     inkscape:groupmode="layer"
     id="layer1"
     transform="translate(0,-1016.3622)">
    <text
       xml:space="preserve"
       style="font-style:normal;font-weight:normal;font-size:4.69459105px;line-height:125%;font-family:sans-serif;letter-spacing:0px;word-spacing:0px;fill:#000000;fill-opacity:1;stroke:none;stroke-width:1px;stroke-linecap:butt;stroke-linejoin:miter;stroke-opacity:1"
       x="79.96981"
       y="1050.4181"
       id="text4232"
       sodipodi:linespacing="125%"><tspan
         sodipodi:role="line"
         id="tspan4234"
         x="79.96981"
         y="1050.4181" /></text>
    <g
       transform="matrix(0.12747511,0,0,0.12747511,-78.662635,1382.4823)"
       id="g4666"
       style="fill:#b2dbfb;fill-opacity:1">
      <path
         sodipodi:nodetypes="csssccssccccccccscscsccccccccccccccccccscccscccscscscscccscccsccccscccccccccccccscscsccccccccssccssscc"
         id="path3389-8"
         d="m 1003.4875,-2853.6697 c -4.53441,2.395 -15.41212,11.9697 -47.46331,40.3033 -48.24556,42.6497 -51.12635,44.8889 -52.34726,44.8889 -1.72433,0 -5.44614,-1.7601 -50.34629,-22.4873 -44.90016,-20.7271 -51.09585,-24.0997 -51.09585,-24.0997 0,0 0.006,0.041 -30.63489,39.4547 -29.10935,39.0224 -29.56311,39.3724 -52.09633,11.4205 -22.53324,-27.9519 -25.54378,-31.3781 -26.28833,-31.3781 -0.40643,0 -1.51162,0.668 -2.45544,1.4844 -0.94389,0.8165 -2.25921,1.6786 -11.94983,8.766 l -11.4372,8.6863 c 0,0 32.7272,39.5453 37.70506,52.3819 l 0.1637,75.9445 c 0,30.5349 0.58263,43.879 0.58263,43.879 0,0 8.17088,0.3039 12.26645,0.2267 l 13.9271,-0.262 0.10447,-20.0826 c 0.10122,-19.4331 0.90787,-19.6271 0.90787,-19.6271 0.66563,-1.665 2.75251,-2.7825 7.11325,-2.7825 5.02433,0 5.81219,4e-4 7.56018,2.4076 1.74793,2.4073 1.16133,2.2268 1.55081,21.0864 l 0.39093,18.9226 11.40058,0.3003 13.31109,-0.1713 0.20246,-37.7535 0.84972,-82.3179 16.36639,-22.5608 21.16312,-25.1942 28.65224,11.4497 c 11.40259,5.0545 17.36115,7.7439 20.96389,9.3716 -10e-5,-0.075 -10e-4,-0.1612 -10e-4,-0.2328 -0.0406,-0.021 -0.0429,-0.022 -0.084,-0.042 0.0783,-4.2947 0.0796,-3.5255 0.084,0.042 4.46667,2.2569 5.24115,2.6003 10e-4,0.2328 0.008,6.4714 0.0346,52.3899 0.52447,88.913 l 0.78079,58.2604 14.38265,-0.01 15.91408,0.092 -0.0539,-31.8639 c 0.10275,-38.3822 -1.80025,-34.7996 9.60099,-34.7996 4.36454,0 7.72318,0.2767 7.97374,0.656 0.23814,0.3605 0.67502,0.5151 0.9714,0.3437 0.29638,-0.1714 0.91531,0.7666 1.37419,2.0852 0.61971,1.7759 0.51223,10.2975 0.61925,32.8747 l 0.1443,30.4449 15.38745,0.032 16.38902,-0.039 0.0539,-53.0641 c 0.0411,-40.1036 -1.08698,-94.8346 -0.17017,-95.9708 0.91682,-1.1362 2.35185,-2.0507 27.17358,-24.1944 23.9741,-21.3875 28.76525,-25.3829 29.86705,-25.6316 1.1018,0.2487 5.8929,4.2441 29.867,25.6316 24.8217,22.1437 26.2568,23.0582 27.1736,24.1944 0.9168,1.1362 -0.211,55.8672 -0.1702,95.9708 l 0.054,53.0641 16.3891,0.039 15.3874,-0.032 0.1443,-30.4449 c 0.107,-22.5772 -5e-4,-31.0988 0.6193,-32.8747 0.4588,-1.3186 1.0778,-2.2566 1.3741,-2.0852 0.2964,0.1714 0.7333,0.017 0.9714,-0.3437 0.2506,-0.3793 3.6092,-0.656 7.9738,-0.656 11.4012,0 9.4982,-3.5826 9.6009,34.7996 l -0.054,31.8639 15.9141,-0.092 14.3827,0.01 0.7807,-58.2604 c 0.4897,-36.5231 0.5168,-82.4416 0.5245,-88.913 -5.2411,2.3675 -4.4666,2.0241 0,-0.2328 0.01,-3.5679 0.01,-4.3371 0.084,-0.042 -0.041,0.021 -0.043,0.022 -0.084,0.042 0,0.072 10e-5,0.1577 0,0.2328 3.6028,-1.6277 9.5613,-4.3171 20.9639,-9.3716 l 28.6522,-11.4497 21.1631,25.1942 16.3665,22.5608 0.8497,82.3179 0.2024,37.7535 13.3111,0.1713 11.4006,-0.3003 0.3909,-18.9226 c 0.3896,-18.8596 -0.1971,-18.6791 1.5508,-21.0864 1.748,-2.4072 2.5359,-2.4076 7.5602,-2.4076 4.3607,0 6.4476,1.1175 7.1133,2.7825 0,0 0.8066,0.194 0.9078,19.6271 l 0.1045,20.0826 13.9271,0.262 c 4.0956,0.077 12.2665,-0.2267 12.2665,-0.2267 0,0 0.5826,-13.3441 0.5826,-43.879 l 0.1637,-75.9445 c 4.9779,-12.8366 37.705,-52.3819 37.705,-52.3819 l -11.4372,-8.6863 c -9.6906,-7.0874 -11.0059,-7.9495 -11.9498,-8.766 -0.9438,-0.8164 -2.049,-1.4844 -2.4554,-1.4844 -0.7446,0 -3.7551,3.4262 -26.2883,31.3781 -22.5332,27.9519 -22.9871,27.6019 -52.0964,-11.4205 -30.6409,-39.4134 -30.6349,-39.4547 -30.6349,-39.4547 0,0 -6.1956,3.3726 -51.0958,24.0997 -44.9001,20.7272 -48.622,22.4873 -50.3463,22.4873 -1.2209,0 -4.1018,-2.2392 -52.3473,-44.8889 -32.0512,-28.3336 -42.9288,-37.9083 -47.4632,-40.3033 z"
         style="fill:#b2dbfb;fill-opacity:1"
         inkscape:connector-curvature="0" />
      <path
         sodipodi:nodetypes="cssssccc"
         inkscape:connector-curvature="0"
         id="path3367-3"
         d="m 785.51527,-2658.1564 -0.1668,-10.9351 c -0.081,-5.3091 -0.2304,-10.0828 0.18199,-11.6864 0.41238,-1.6036 1.38657,-0.037 2.76506,-0.037 2.75699,0 2.28943,0.01 2.75699,11.2874 l 0.46394,11.1916 -3.05413,0.2964 z"
         style="fill:#b2dbfb;fill-opacity:1" />
      <path
         inkscape:connector-curvature="0"
         id="path3363-4"
         d="m 958.35138,-2669.3102 c 0.18824,-11.4283 0.18824,-11.4283 9.49309,-11.3274 5.11768,0.055 9.5448,0.1109 9.83809,0.123 0.29324,0.012 0.44834,5.029 0.34463,11.1484 -0.18858,11.1262 -0.18858,11.1262 -10.02635,11.3053 -9.83776,0.179 -9.83776,0.179 -9.64946,-11.2493 z"
         style="fill:#b2dbfb;fill-opacity:1" />
      <ellipse
         ry="21.008495"
         rx="20.480494"
         cy="-2800.3801"
         cx="740.98364"
         id="path4271-1"
         style="fill:#b2dbfb;fill-opacity:1" />
      <ellipse
         ry="28.195616"
         rx="27.372971"
         cy="-2818.4138"
         cx="899.11664"
         id="path4275-4"
         style="fill:#b2dbfb;fill-opacity:1" />
      <rect
         y="-2731.3237"
         x="862.3587"
         height="7.4927802"
         width="4.3167191"
         id="rect4279-2"
         style="fill:#b2dbfb;fill-opacity:1" />
      <rect
         y="-2724.2219"
         x="862.42834"
         height="0.78185534"
         width="1.1836165"
         id="rect4281-1"
         style="fill:#b2dbfb;fill-opacity:1" />
      <rect
         y="-2682.6118"
         x="784.58447"
         height="25.615623"
         width="18.77178"
         id="rect4310-9"
         style="fill:#b2dbfb;fill-opacity:1" />
      <rect
         y="-2648.6968"
         x="784.44702"
         height="25.615625"
         width="18.771782"
         id="rect4310-2-2"
         style="display:inline;fill:#b2dbfb;fill-opacity:1" />
      <rect
         y="-2683.8301"
         x="818.17932"
         height="79.539284"
         width="31.705379"
         id="rect4347-8"
         style="fill:#b2dbfb;fill-opacity:1" />
      <path
         id="rect4354-0"
         d="m 991.0821,-2681.1377 0,77.0308 12.4054,0 0,-77.0308 -12.4054,0 z"
         style="fill:#b2dbfb;fill-opacity:1"
         inkscape:connector-curvature="0" />
      <rect
         y="-2680.585"
         x="957.60425"
         height="23.602449"
         width="20.677422"
         id="rect4356-9"
         style="fill:#b2dbfb;fill-opacity:1" />
      <rect
         y="-2647.0518"
         x="957.50586"
         height="23.602451"
         width="20.677423"
         id="rect4356-4-3"
         style="display:inline;fill:#b2dbfb;fill-opacity:1" />
      <path
         sodipodi:nodetypes="cscsscsc"
         inkscape:connector-curvature="0"
         id="path3383-7-4"
         d="m 1188.7083,-2604.7052 c 0.01,-0.1774 0.012,-17.1569 0.012,-37.7324 0,-20.5754 -0.01,-37.7055 -0.012,-38.0669 -0.01,-0.4318 -5.3893,-0.5977 -15.6917,-0.4838 -15.6804,0.1734 -15.9128,0.173 -15.8583,38.3895 l 0.055,38.0462 15.626,0.1699 c 8.7214,0.095 15.8634,-0.1451 15.8696,-0.3225 z"
         style="fill:#b2dbfb;fill-opacity:1" />
      <path
         sodipodi:nodetypes="cssssccc"
         inkscape:connector-curvature="0"
         id="path3367-0-8"
         d="m 1221.4594,-2658.1564 0.1669,-10.9351 c 0.081,-5.3091 0.2303,-10.0828 -0.1821,-11.6864 -0.4124,-1.6036 -1.3865,-0.037 -2.765,-0.037 -2.757,0 -2.2895,0.01 -2.757,11.2874 l -0.4639,11.1916 3.0541,0.2964 z"
         style="fill:#b2dbfb;fill-opacity:1" />
      <path
         inkscape:connector-curvature="0"
         id="path3363-2-5"
         d="m 1048.6234,-2669.3102 c -0.1883,-11.4283 -0.1883,-11.4283 -9.4931,-11.3274 -5.1177,0.055 -9.5448,0.1109 -9.8381,0.123 -0.2932,0.012 -0.4483,5.029 -0.3446,11.1484 0.1886,11.1262 0.1886,11.1262 10.0263,11.3053 9.8378,0.179 9.8378,0.179 9.6495,-11.2493 z"
         style="fill:#b2dbfb;fill-opacity:1" />
      <ellipse
         transform="scale(-1,1)"
         ry="21.008495"
         rx="20.480484"
         cy="-2795.7356"
         cx="-1264.8862"
         id="path4271-2-4"
         style="fill:#b2dbfb;fill-opacity:1" />
      <ellipse
         transform="scale(-1,1)"
         ry="28.195616"
         rx="27.372953"
         cy="-2817.3088"
         cx="-1105.6484"
         id="path4275-8-5"
         style="fill:#b2dbfb;fill-opacity:1" />
      <rect
         transform="scale(-1,1)"
         y="-2731.3237"
         x="-1144.616"
         height="7.4927802"
         width="4.3167167"
         id="rect4279-7-4"
         style="fill:#b2dbfb;fill-opacity:1" />
      <rect
         transform="scale(-1,1)"
         y="-2724.2219"
         x="-1144.5464"
         height="0.78185534"
         width="1.1836158"
         id="rect4281-0-1"
         style="fill:#b2dbfb;fill-opacity:1" />
      <rect
         transform="scale(-1,1)"
         y="-2682.6118"
         x="-1222.3948"
         height="25.615623"
         width="18.130835"
         id="rect4310-01-0"
         style="fill:#b2dbfb;fill-opacity:1" />
      <rect
         transform="scale(-1,1)"
         y="-2648.6968"
         x="-1222.5277"
         height="25.615625"
         width="18.130835"
         id="rect4310-2-9-9"
         style="display:inline;fill:#b2dbfb;fill-opacity:1" />
      <rect
         transform="scale(-1,1)"
         y="-2683.9043"
         x="-1188.7954"
         height="79.613388"
         width="31.705362"
         id="rect4347-3-5"
         style="fill:#b2dbfb;fill-opacity:1" />
      <path
         inkscape:connector-curvature="0"
         id="rect4354-2-6"
         d="m 1015.8927,-2681.1377 0,77.0308 -15.416,0 0,-77.0308 15.416,0 z"
         style="fill:#b2dbfb;fill-opacity:1" />
      <rect
         transform="scale(-1,1)"
         y="-2680.585"
         x="-1049.3706"
         height="23.602449"
         width="20.677412"
         id="rect4356-6-0"
         style="fill:#b2dbfb;fill-opacity:1" />
      <rect
         transform="scale(-1,1)"
         y="-2647.0518"
         x="-1049.4689"
         height="23.602451"
         width="20.677412"
         id="rect4356-4-6-7"
         style="display:inline;fill:#b2dbfb;fill-opacity:1" />
      <ellipse
         transform="scale(-1,1)"
         ry="21.008495"
         rx="20.480484"
         cy="-2733.3582"
         cx="-1004.9614"
         id="path4271-2-9-6"
         style="display:inline;fill:#b2dbfb;fill-opacity:1" />
    </g>
  </g>
</svg>
